<?xml version="1.0" standalone="no"?>
<!DOCTYPE svg PUBLIC "-//W3C//DTD SVG 20010904//EN"
 "http://www.w3.org/TR/2001/REC-SVG-20010904/DTD/svg10.dtd">
<svg version="1.0" xmlns="http://www.w3.org/2000/svg"
 width="1280.000000pt" height="1280.000000pt" viewBox="0 0 1280.000000 1280.000000"
 preserveAspectRatio="xMidYMid meet">
<metadata>
Created by potrace 1.14, written by Peter Selinger 2001-2017
</metadata>
<g transform="translate(0.000000,1280.000000) scale(0.100000,-0.100000)"
fill="#000000" stroke="none">
<path d="M5905 8027 c-203 -1150 -371 -2107 -373 -2124 l-4 -33 371 0 c221 0
371 4 371 9 0 23 361 2088 369 2105 6 16 62 -61 299 -415 161 -238 483 -717
716 -1064 l423 -630 486 -3 c268 -1 487 1 487 4 0 3 -369 508 -820 1122 -782
1063 -820 1116 -803 1133 10 9 497 452 1083 984 586 532 1074 976 1085 986 19
19 8 19 -486 19 l-506 0 -953 -937 c-524 -516 -957 -940 -962 -942 -6 -2 -8 5
-5 15 3 11 78 426 166 924 89 498 163 913 165 923 4 16 -19 17 -367 17 l-372
0 -370 -2093z"/>
<path d="M1315 8007 c-203 -1150 -371 -2107 -373 -2124 l-4 -33 1429 0 1428 0
53 313 c30 171 56 320 58 330 5 16 -50 17 -1055 17 -930 0 -1061 2 -1061 15 0
14 194 1123 205 1173 l5 22 929 0 929 0 6 28 c19 91 106 578 106 593 0 18 -31
19 -931 19 l-931 0 6 28 c6 25 186 1054 186 1059 0 2 441 3 980 3 647 0 980 3
980 10 0 6 25 150 55 320 30 170 55 312 55 315 0 3 -604 5 -1342 5 l-1343 0
-370 -2093z"/>
<path d="M10805 8007 c-203 -1150 -371 -2107 -373 -2125 l-4 -32 373 2 373 3
373 2110 c205 1161 373 2116 373 2123 0 9 -81 12 -372 12 l-373 0 -370 -2093z"/>
<path d="M2375 4252 c-19 -3 -53 -24 -91 -57 -33 -30 -213 -151 -400 -270
-467 -299 -478 -306 -487 -322 -4 -7 -31 -25 -58 -38 -27 -14 -69 -40 -93 -58
-24 -18 -67 -44 -95 -59 -28 -16 -51 -31 -51 -35 1 -5 50 -48 109 -96 60 -48
129 -108 153 -131 24 -24 154 -126 288 -228 135 -101 401 -302 591 -445 l347
-261 138 -6 c77 -3 585 -9 1131 -12 l992 -6 4 168 c2 93 9 536 15 984 6 448
14 827 17 843 l4 27 -117 1 c-260 4 -2369 4 -2397 1z"/>
<path d="M7780 4250 c-80 -4 -145 -8 -145 -8 0 -181 25 -1956 28 -1994 1 -17
70 -18 1292 -18 l1290 0 60 54 c55 49 96 77 310 214 39 24 86 55 105 67 19 12
67 43 105 67 39 24 112 71 163 104 51 32 118 75 150 95 250 158 371 239 379
253 4 7 31 25 58 39 58 29 155 98 155 110 0 5 -44 56 -97 113 -99 107 -137
136 -1006 790 l-148 111 -517 6 c-618 8 -1978 6 -2182 -3z"/>
</g>
</svg>
